<svg width="43" height="43" viewBox="0 0 43 43" fill="none" xmlns="http://www.w3.org/2000/svg">
<rect x="0.107236" y="0.107236" width="42.6801" height="42.6801" rx="4.18222" stroke="white" stroke-width="0.214473"/>
<path d="M19.1612 25.3859C18.6465 25.3859 18.1746 24.914 18.1746 24.3564C18.1746 23.8417 18.6465 23.3698 19.1612 23.3698H24.2227C24.7804 23.3698 25.2093 23.8417 25.2093 24.3564C25.2093 24.914 24.7804 25.3859 24.2227 25.3859L19.1612 25.3859ZM1.746 9.47201C1.48864 9.00017 1.61732 8.35675 2.08916 8.09939C2.561 7.79912 3.20442 7.9707 3.46178 8.44254L19.0325 34.4795C19.5901 35.4232 20.6196 36.0237 21.692 36.0237C22.8072 36.0237 23.7938 35.4232 24.3514 34.4795L39.9221 8.44254C40.2224 7.9707 40.8229 7.79912 41.2948 8.09939C41.7666 8.35675 41.9382 9.00017 41.6379 9.47201L26.0672 35.509C25.1664 37.0532 23.5364 37.9969 21.692 37.9969C19.8904 37.9969 18.2604 37.0532 17.3167 35.509L1.746 9.47201Z" fill="white"/>
</svg>
